<svg width="24" height="24" viewBox="0 0 24 24" fill="none" xmlns="http://www.w3.org/2000/svg">
<path d="M20.4904 3.51497C18.8118 1.83667 16.6731 0.693713 14.3448 0.230633C12.0164 -0.232446 9.60301 0.00515289 7.40973 0.913383C5.21645 1.82161 3.34182 3.35968 2.0229 5.33309C0.703974 7.30649 0 9.6266 0 12C0 14.3734 0.703974 16.6935 2.0229 18.6669C3.34182 20.6403 5.21645 22.1784 7.40973 23.0866C9.60301 23.9948 12.0164 24.2324 14.3448 23.7694C16.6731 23.3063 18.8118 22.1633 20.4904 20.485C22.7379 18.2328 24 15.1813 24 12C24 8.81865 22.7379 5.76719 20.4904 3.51497ZM16.7366 16.7327C16.6508 16.8184 16.5491 16.8865 16.437 16.9329C16.325 16.9793 16.2049 17.0032 16.0837 17.0032C15.9624 17.0032 15.8423 16.9793 15.7303 16.9329C15.6183 16.8865 15.5165 16.8184 15.4308 16.7327L12.004 13.3055L8.41305 16.8949C8.32731 16.9807 8.22552 17.0487 8.1135 17.0951C8.00147 17.1414 7.88141 17.1653 7.76015 17.1653C7.6389 17.1653 7.51883 17.1414 7.40681 17.0951C7.29478 17.0487 7.19299 16.9807 7.10725 16.8949C7.02151 16.8092 6.9535 16.7075 6.9071 16.5955C6.86069 16.4835 6.83681 16.3634 6.83681 16.2422C6.83681 16.121 6.86069 16.0009 6.9071 15.8889C6.9535 15.7769 7.02151 15.6752 7.10725 15.5895L10.6976 12.0013L7.26827 8.57341C7.18244 8.48761 7.11437 8.38575 7.06792 8.27364C7.02147 8.16154 6.99757 8.04138 6.99757 7.92004C6.99757 7.7987 7.02147 7.67854 7.06792 7.56644C7.11437 7.45433 7.18244 7.35247 7.26827 7.26667C7.35409 7.18086 7.45598 7.1128 7.56811 7.06636C7.68024 7.01993 7.80043 6.99603 7.9218 6.99603C8.04317 6.99603 8.16335 7.01993 8.27549 7.06636C8.38762 7.1128 8.48951 7.18086 8.57533 7.26667L12.004 10.6951L15.2685 7.43143C15.3542 7.34571 15.456 7.27771 15.5681 7.23132C15.6801 7.18493 15.8001 7.16105 15.9214 7.16105C16.0427 7.16105 16.1627 7.18493 16.2747 7.23132C16.3868 7.27771 16.4886 7.34571 16.5743 7.43143C16.66 7.51715 16.7281 7.61891 16.7745 7.73091C16.8209 7.84291 16.8447 7.96295 16.8447 8.08417C16.8447 8.2054 16.8209 8.32544 16.7745 8.43743C16.7281 8.54943 16.66 8.6512 16.5743 8.73692L13.3092 12.0013L16.7366 15.4278C16.9096 15.6009 17.0068 15.8356 17.0068 16.0803C17.0068 16.325 16.9096 16.5596 16.7366 16.7327Z" fill="#ABABAB"/>
</svg>
