<svg width="18" height="15" viewBox="0 0 18 15" fill="none" xmlns="http://www.w3.org/2000/svg">
<path d="M15.75 0.296875H2.25C1.65326 0.296875 1.08097 0.518124 0.65901 0.911951C0.237053 1.30578 0 1.83992 0 2.39687L0 12.1969C0 12.7538 0.237053 13.288 0.65901 13.6818C1.08097 14.0756 1.65326 14.2969 2.25 14.2969H15.75C16.3467 14.2969 16.919 14.0756 17.341 13.6818C17.7629 13.288 18 12.7538 18 12.1969V2.39687C18 1.83992 17.7629 1.30578 17.341 0.911951C16.919 0.518124 16.3467 0.296875 15.75 0.296875ZM6.15525 9.54177L4.28025 11.2918C4.1388 11.4193 3.94935 11.4898 3.7527 11.4882C3.55605 11.4867 3.36794 11.413 3.22889 11.2832C3.08983 11.1535 3.01095 10.9779 3.00924 10.7944C3.00754 10.6108 3.08313 10.434 3.21975 10.302L5.09475 8.55198L6.15525 9.54177ZM14.7803 11.2918C14.6396 11.423 14.4489 11.4967 14.25 11.4967C14.0511 11.4967 13.8604 11.423 13.7197 11.2918L11.8448 9.54177L12.9053 8.55198L14.7803 10.302C14.9209 10.4332 14.9998 10.6113 14.9998 10.7969C14.9998 10.9825 14.9209 11.1605 14.7803 11.2918ZM14.7803 4.29177L9.53025 9.19177C9.3896 9.323 9.19887 9.39673 9 9.39673C8.80113 9.39673 8.6104 9.323 8.46975 9.19177L3.21975 4.29177C3.08313 4.15975 3.00754 3.98293 3.00924 3.79939C3.01095 3.61586 3.08983 3.44029 3.22889 3.3105C3.36794 3.18072 3.55605 3.1071 3.7527 3.1055C3.94935 3.10391 4.1388 3.17446 4.28025 3.30198L9 7.70708L13.7197 3.30198C13.7889 3.23512 13.8717 3.18179 13.9632 3.1451C14.0547 3.10842 14.1531 3.08911 14.2527 3.0883C14.3523 3.08749 14.451 3.1052 14.5432 3.1404C14.6354 3.1756 14.7191 3.22757 14.7895 3.2933C14.86 3.35902 14.9157 3.43718 14.9534 3.52321C14.9911 3.60923 15.0101 3.70141 15.0092 3.79436C15.0083 3.8873 14.9876 3.97916 14.9483 4.06456C14.909 4.14996 14.8519 4.2272 14.7803 4.29177Z" fill="#FF884B"/>
</svg>
