<svg width="16" height="21" viewBox="0 0 16 21" fill="none" xmlns="http://www.w3.org/2000/svg">
<path d="M8 0.539062C4.08889 0.539062 0 3.49558 0 8.36515C0 12.9738 7.11111 20.0173 7.37778 20.2782C7.55556 20.4521 7.73333 20.5391 8 20.5391C8.26667 20.5391 8.44444 20.4521 8.62222 20.2782C8.88889 20.0173 16 12.9738 16 8.36515C16 3.49558 11.9111 0.539062 8 0.539062ZM8 10.9738C6.48889 10.9738 5.33333 9.84341 5.33333 8.36515C5.33333 6.88689 6.48889 5.75645 8 5.75645C9.51111 5.75645 10.6667 6.88689 10.6667 8.36515C10.6667 9.84341 9.51111 10.9738 8 10.9738Z" fill="#FF884B"/>
</svg>
