<svg width="16" height="17" viewBox="0 0 16 17" fill="none" xmlns="http://www.w3.org/2000/svg">
<path d="M10.6468 10.2871L8.93409 11.9751C8.04118 11.4364 7.21173 10.7989 6.4614 10.0747C5.73857 9.32339 5.10146 8.49407 4.56179 7.60203L6.24831 5.88933C6.3496 5.78576 6.41801 5.65456 6.44492 5.51221C6.47184 5.36987 6.45606 5.22275 6.39958 5.08934L4.64179 0.983227C4.57249 0.82191 4.44765 0.690787 4.28992 0.613659C4.1322 0.536531 3.95204 0.518511 3.78217 0.56287L0.550219 1.41595C0.388735 1.45741 0.246231 1.55273 0.146262 1.68616C0.0462918 1.81958 -0.00516036 1.98312 0.000408965 2.14975C0.205776 5.90283 1.76638 9.4538 4.39234 12.1431C7.08219 14.7701 10.6343 16.3312 14.3885 16.5364C14.5552 16.5416 14.7186 16.4901 14.8521 16.3902C14.9856 16.2903 15.0811 16.148 15.1231 15.9866L15.9754 12.7576C16.0206 12.5874 16.0031 12.4066 15.9261 12.2483C15.849 12.0899 15.7176 11.9646 15.5558 11.8951L11.4533 10.1365C11.3192 10.0784 11.1707 10.0617 11.027 10.0886C10.8834 10.1154 10.7509 10.1845 10.6468 10.2871Z" fill="#FF884B"/>
</svg>
